<?xml version="1.0" encoding="utf-8"?>
<!-- Generator: Adobe Illustrator 22.1.0, SVG Export Plug-In . SVG Version: 6.00 Build 0)  -->
<svg version="1.1" id="Layer_1" xmlns="http://www.w3.org/2000/svg" xmlns:xlink="http://www.w3.org/1999/xlink" x="0px" y="0px"
	 viewBox="0 0 800 800" style="enable-background:new 0 0 800 800;" xml:space="preserve">
<style type="text/css">
	.st0{fill:#231F20;}
	.st1{fill:#EC1C24;}
</style>
<g>
	<g>
		<path class="st0" d="M395.2,329.4c-62.6,0-113.6-50.9-113.6-113.6c0-62.6,50.9-113.6,113.6-113.6c62.6,0,113.6,50.9,113.6,113.6
			C508.7,278.4,457.8,329.4,395.2,329.4z M395.2,106c-60.6,0-109.8,49.3-109.8,109.8c0,60.6,49.3,109.8,109.8,109.8
			S505,276.4,505,215.8C505,155.3,455.7,106,395.2,106z"/>
	</g>
	<g>
		<path class="st0" d="M395.2,302.2c-47.6,0-86.4-38.8-86.4-86.4c0-47.6,38.8-86.4,86.4-86.4s86.4,38.8,86.4,86.4
			C481.6,263.5,442.8,302.2,395.2,302.2z M395.2,133.2c-45.6,0-82.7,37.1-82.7,82.7c0,45.6,37.1,82.7,82.7,82.7s82.7-37.1,82.7-82.7
			C477.8,170.2,440.7,133.2,395.2,133.2z"/>
	</g>
	<g>
		<path class="st0" d="M216.6,467.8c-0.4,7.5,1.3,18.1,6.1,29.1c-26.6,17.6-53.8,33.4-53.8,60.3c0,17.7,10.6,28.6,23.2,28.6
			c12,0,16.3-9.8,13.1-9.8c-3.3,0-4.7,3.4-12.6,3.4c-7.9,0-13.1-4.5-13.1-19.3c0-18,11.7-36,46-57.7c1,1.9,2.1,3.7,3.3,5.5
			c17.1,26.5,36.9,27.8,36.9,23.8c0-3.9-19.7-7.5-30.9-31.3c-0.5-1-0.9-2.1-1.4-3.1c32.6-21.2,51.7-42.8,51.7-60.1
			c0-13.7-10.7-22.1-15.7-22.1c-5.6,0,6.8,5.3,6.8,19.9c0,13.7-10.9,32.6-45.1,56.1c-4.7-14.3-4.4-26.1-6.2-31.3
			c0.1-1.1-0.4-2.1-1.8-2.6c-0.4-0.2-0.8-0.3-1.2-0.3c-0.1,0-0.2,0-0.3,0c-0.2,0-0.3,0-0.5,0c-7,0-60.9,73.4-100.5,73.4
			c-24.2,0-38.8-18.7-38.8-42.3c0-43.4,32.9-69.5,64.4-72.3c7.1,14,18.7,22.1,26.5,22.1c11,0,8.8-22.1-16.7-26.1
			c-1.4-5.4-2.2-11.8-2.2-19.5c0-1.8,0.1-3.7,0.3-5.5c7.1,0.5,14.1,0.9,21.1,1c32.7,0.2,63.2-15.5,63.2-40.2c0-19.3-14.1-29-29.8-29
			c-23.8,0-63.6,25.1-68.3,62.5c-6.5-0.3-13.4-0.5-20.8-0.5c-56.2,0-82.7,24.7-82.7,41.7c0,9.3,2.1,11.8,4.8,11.8
			c5.2,0,1.7-8.1,1.7-11.8c0-3.7,0.8-16.6,32.7-29.8c20.6-8.5,42.3-8.1,63.9-6.6c0,0.9-0.1,1.7-0.1,2.6c0,8.6,1.7,16.3,4.4,22.9
			c-38.7,2.1-76.3,36.6-76.3,71c0,30.7,20.5,52.9,52,52.9C154,535.2,202.8,480.9,216.6,467.8z M208.4,324c14.3,0,25.5,9.7,25.5,23.4
			c0,14.7-17.6,30.5-42.5,34c-11.2,1.6-23.1,1.1-36.5,0.4C160.2,351.9,186.9,324,208.4,324z M172.4,432.8c-4.7,0-11.1-5.3-15-16.7
			C172.1,419.1,178.7,432.8,172.4,432.8z"/>
		<path class="st0" d="M763.5,493.5c-25.5,0-77.3,40.6-99.8,40.6c-12.6,0-18.7-9.6-18.7-26c0-1.4,0.1-2.7,0.2-4.1
			c11.8-2.9,37-16.5,37-29.9c0-10.3-5.8-15.5-14.8-15.5c-14.5,0-35.3,23.3-35.3,45.9c0,1,0,2,0.1,3c-10,10.2-28.5,33.7-38.5,33.7
			c-5,0-8.1-4.2-8.1-10.3c0-12.9,14.5-30.9,14.5-36.5c0-7.9-16.2-5.2-21-16c8.2-5.4,22.9-16.5,22.9-26c0-19.1-35.9-10.7-35.9,18.8
			c0,3.4,0.7,6.2,1.7,8.5c-6.7,4.2-17.5,9.4-33.6,9.4c-1,0-2,0-3-0.1c1.7-5.4,2.7-10.8,2.7-15.6c0-20.2-9-29.4-20.1-29.4
			s-19.3,10.3-19.3,21.6c0,2.9,0.6,5.8,1.8,8.5c-5,0.8-12.1,7.9-15.9,18.2c-4.8,7.5-32.8,49.6-47.6,49.6c-8.7,0-10.9-10.3-10.9-28.9
			c0-14,3.3-30.1,8.7-46.6c25.7-12,100.5-56.6,100.5-93.8c0-11.2-7.3-20.9-21.1-20.9c-33.7,0-81.7,60.3-97.1,116
			c-7.3,3.2-17.8,7.2-32.4,11.4c0.2-1.7,0.3-3.4,0.3-5.1c0-15.9-7.4-31.4-21.8-31.4c-19.8,0-40.7,42.6-49.4,49.8
			c6.8-26.7,12.5-48.8,12.5-61.8c0-16.2-5.6-26.9-9.6-26.9c-3.6,0,0.9,5.9,0.9,17.7c0,26.6-36.1,95.1-36.1,185.8
			c0,29.4,7.3,51,11.5,51s-2.2-12.6-2.2-29.8c0-34.5,7.2-71.6,15.1-104.8c10.7-25.4,41.8-75.4,56.1-75.4c8.7,0,10.7,11.2,10.7,26.6
			c0,2.4-0.2,5.1-0.7,7.9c-34.8,10.5-46.1,22.5-46.1,36.4c0,10.6,6.7,14.9,14.6,14.9c20,0,38.2-26.2,43-49
			c12.8-3.7,23.8-7.8,31.8-11.1c-2.1,9.2-3.3,18.2-3.3,26.7c0,24.9,8.3,46.2,24.9,46.2c14.8,0,35.2-27.1,44.8-41.2
			c0,0.6,0,1.1,0,1.7c0,14.8,4.5,26.9,17.4,26.9c10.8,0,27.1-20.4,34.7-40.9c1.5,0.1,3,0.2,4.6,0.2c15.2,0,29.2-6.5,35.9-10.1
			c6.9,7.9,20,7.5,20,10.1c0,3.6-14.8,20.1-14.8,32.2c0,12.1,7.9,20.2,17.3,20.2c11.8,0,30.6-23.4,40-33.4
			c2.5,14.5,12.1,26.1,30.1,26.1c21.9,0,76.3-41,99.6-41c21.6,0,11.7,12,15.7,12C784,509.5,785.7,493.5,763.5,493.5z M336.5,527.8
			c-4.7,0-9-3.1-9-9c0-9.9,11-21.9,39.2-30.3C362,506.8,349.5,527.8,336.5,527.8z M509.6,356.1c11,0,16.4,6,16.4,17
			c0,31-65.4,73.5-92.8,86.1C451.6,408,488.5,356.1,509.6,356.1z M515,450.6c7.3,0,14.1,8.7,14.1,22.4c0,4.7-1,10.1-2.8,15.5
			c-17-2.3-22.2-12.4-22.2-22.5C504.1,457.2,509.2,450.6,515,450.6z M495.8,529.4c-9.9,0-7.5-22.4-2-36.2c1.6-4.1,4.7-9.4,6-13.5
			c5.1,6.3,13.6,11.2,25,13C517.8,511.1,503.9,529.4,495.8,529.4z M596.7,452.3c0,6.9-11.5,15.9-18.9,21c-0.1-0.7-0.1-1.3-0.1-2.1
			C577.8,453.2,596.7,441.4,596.7,452.3z M668.9,464.9c5,0,8.5,2.6,8.5,8.9c0,10.1-19.8,22.6-31.5,25.5
			C648.8,482.2,659.2,464.9,668.9,464.9z"/>
		<path class="st0" d="M598.7,693.1c0,16-24.2,44.1-46.2,44.1c-14.9,0-23.8-8.5-23.8-30.9c0-1.7,0.1-3.4,0.3-5.1
			c14.4-2.9,32.7-14.2,32.7-27c0-9.7-5-15.5-13.9-15.5c-14.4,0-31.5,21.5-33.2,41.7c-13.2,10.8-39.2,40.9-49.3,40.9
			c-17.6,0,6.8-35.9,6.8-43.3c0-10.8-15.2-11.2-19.9-22.5c6.7-4.3,20.1-14.4,20.1-27c0-19.9-34.4-6.6-34.4,18c0,4.3,1,7.7,2.5,10.5
			c-7,4.5-22,13.2-37.3,15.2c0.3-2.2,0.4-4.4,0.4-6.6c0-42.5-43.5-39.2-43.5-16.6c0,6.3,2.8,12.8,8.2,18.1c-0.1,0-0.2,0-0.4,0
			c-5.8,0-14.3,10.5-17.1,21.3c-10.3,14.7-34.2,45.8-50.3,45.8c-26.7,0,13.5-66.3-20.3-66.3c-12.8,0-28.1,11.8-37.6,24.8
			c3-18.2,4.9-40.3,4.9-49.3c0-29-8.7-46-29.6-46c-35.5,0-49.4,64.4-52,98.9c-2.6-16.4-6-27.9-12.8-27.9c-14.9,0,10.4,51,15.9,51
			c1.2,0,1.7-0.8,1.8-2.2c0.1,0.1,0.2,0.2,0.3,0.2c0-27.6,13.9-113.6,44.8-113.6c13.8,0,15.5,22.2,15.5,33.4
			c0,11.2-6.2,82.9,1.9,82.9c2.2,0,4.3-4.5,6.1-11.4c7.1-15,29.3-34.8,38.4-34.8c9.3,0,0,19.5,0,32.3c0,12.8,2.5,34,23,34
			c15.7,0,37.9-25.9,49.3-40.8c1,12,6.7,21.5,18,21.5c10.8,0,29.1-20.1,34.1-43.5c17-1.5,34.2-11.9,41.1-16.6
			c6.7,6.8,17.2,8,17.2,12.6c0,6.8-12.9,19.5-12.9,32.7c0,13.3,9.3,20.5,17.2,20.5c11.2,0,36.6-29.5,49.6-40
			c1.4,21.5,17.1,35.5,38.2,35.5c24.2,0,52.4-33.8,52.4-48.5C605.1,687.5,598.7,685.2,598.7,693.1z M380.9,659.3
			c9.3,0,17.8,10.2,17.8,26.5c0,2.2-0.2,4.5-0.6,6.8c-0.5,0-1,0-1.5,0c-19.7,0-25.1-12.8-25.1-22.4
			C371.5,663.9,374.9,659.3,380.9,659.3z M369.3,735.4c-6,0-7.7-5.2-7.7-12.2c0-13.3,9.6-28.7,8.8-34.1c6.2,5,15.2,8.4,26.7,8.6
			C392.5,715.8,379.1,735.4,369.3,735.4z M467.3,650c0,8.5-10.2,16.4-16.4,20.4c-0.1-0.8-0.1-1.6-0.1-2.4
			C450.7,653.7,467.3,640,467.3,650z M550,665.9c4.4,0,6.6,2.9,6.6,7.7c0,10.2-16.5,20.5-26.9,22.3C533,679.8,543,665.9,550,665.9z"
			/>
	</g>
	<polygon class="st1" points="489.1,121.9 395.2,183.7 301.2,121.9 363,215.8 301.2,309.8 395.2,248 489.1,309.8 427.3,215.8 	"/>
	<polygon class="st1" points="395.2,373 395.2,58.7 422,189 368.3,242.7 	"/>
	<polygon class="st0" points="395.2,373 395.2,58.7 368.3,189 422,242.7 	"/>
	<polygon class="st1" points="552.3,215.8 238,215.8 368.3,189 422,242.7 	"/>
	<polygon class="st0" points="238,215.8 552.3,215.8 422,189 368.3,242.7 	"/>
</g>
</svg>
